<svg width="188" height="188" viewBox="0 0 188 188" fill="none" xmlns="http://www.w3.org/2000/svg">
<path d="M110.762 9.14448L8.93841 110.968C4.25211 115.654 4.25211 123.252 8.93841 127.938C13.6247 132.625 21.2227 132.625 25.909 127.938L127.732 26.115C132.419 21.4287 132.419 13.8308 127.732 9.14447C123.046 4.45818 115.448 4.45818 110.762 9.14448Z" fill="#3A57E8"/>
<path d="M161.668 60.0507L59.8449 161.874C55.1586 166.56 55.1586 174.158 59.8449 178.845C64.5312 183.531 72.1292 183.531 76.8155 178.845L178.639 77.0213C183.325 72.335 183.325 64.737 178.639 60.0507C173.953 55.3644 166.355 55.3644 161.668 60.0507Z" fill="#3A57E8"/>
<path d="M127.608 161.764L76.6965 110.852C72.0102 106.166 64.4122 106.166 59.7259 110.852C55.0396 115.539 55.0396 123.137 59.7259 127.823L110.638 178.735C115.324 183.421 122.922 183.421 127.608 178.735C132.294 174.048 132.294 166.45 127.608 161.764Z" fill="#3A57E8"/>
<path d="M178.648 110.981L76.825 9.15716C72.1387 4.47087 64.5407 4.47087 59.8544 9.15716C55.1682 13.8435 55.1682 21.4414 59.8544 26.1277L161.678 127.951C166.364 132.637 173.962 132.637 178.648 127.951C183.335 123.265 183.335 115.667 178.648 110.981Z" fill="#3A57E8"/>
</svg>
